<svg xmlns="http://www.w3.org/2000/svg" height="20" width="22.5" viewBox="0 0 576 512"><!--!Font Awesome Free 6.5.1 by @fontawesome - https://fontawesome.com License - https://fontawesome.com/license/free Copyright 2024 Fonticons, Inc.--><path fill="#B197FC" d="M536 352c-42.6 94.2-137.6 160-248 160q-6.4 0-12.8-.3C171.2 506.9 81.3 442.2 40 352H79.9L21.3 293.4a264.8 264.8 0 0 1 -5.1-39.4 273.7 273.7 0 0 1 .5-30H63.9L22.5 182.6A269.8 269.8 0 0 1 130.5 20.5a16.1 16.1 0 0 1 9.3-3 16.4 16.4 0 0 1 13.5 7.3 16 16 0 0 1 1.6 15.1 138.4 138.4 0 0 0 -9.8 51.3c0 45.1 21 86.6 57.7 113.7a16.3 16.3 0 0 1 1.2 25.4c-26.5 24-41.2 56.5-41.2 91.6 0 60 43 110.3 99.9 121.9l2.5-65.3L238.1 397a8.3 8.3 0 0 1 -10-.8 8 8 0 0 1 -1.4-9.9l20.1-33.8-42.1-8.7a8 8 0 0 1 0-15.7l42.1-8.7-20.1-33.7a8 8 0 0 1 11.4-10.7L268.4 295.6 280 7.7a8 8 0 0 1 8-7.7h0a8 8 0 0 1 8 7.7L307.5 295.6l30.4-20.7a8.1 8.1 0 0 1 10 .8 8 8 0 0 1 1.4 9.9L329.1 319.4l42.1 8.7a8 8 0 0 1 0 15.7l-42.1 8.7 20.1 33.7a8 8 0 0 1 -1.3 9.9A8.3 8.3 0 0 1 337.9 397L310.7 378.5l2.5 65.3c48.5-9.4 87.6-48.2 97.3-96.5A123.5 123.5 0 0 0 372 230.3a16.3 16.3 0 0 1 1.2-25.4c36.7-27.2 57.7-68.6 57.7-113.7a138 138 0 0 0 -9.9-51.3 16 16 0 0 1 1.6-15.1 16.4 16.4 0 0 1 13.5-7.2 16 16 0 0 1 9.3 3A271.3 271.3 0 0 1 553.3 182.8L512 224h47C559.3 229.8 560 235.5 560 241.3a270.1 270.1 0 0 1 -5.1 51.9L496 352z"/></svg>